<?xml version="1.0" encoding="UTF-8"?>
<svg id="Layer_1" xmlns="http://www.w3.org/2000/svg" version="1.1" viewBox="0 0 149.6 133.8">
  <!-- Generator: Adobe Illustrator 30.3.0, SVG Export Plug-In . SVG Version: 2.1.3 Build 182)  -->
  <defs>
    <style>
      .st0 {
        fill: #082341;
      }
    </style>
  </defs>
  <g>
    <path class="st0" d="M1.8.3c.9.6,1.7,1.9,2,2.4l28.4,38.3v-7L7.2.3H1.8ZM4.5,34.2c-.2-1.8-.3-2.9-.3-4.4,0-1.5,0-3.1,0-3.1,0-.3,0-.7,0-1v-3.9h0v3.9c0,.3,0,.7,0,1,0,0,0,1.7,0,3.1,0,1.5,0,2.6-.3,4.4-.5,4.7-1.9,6-1.9,6-.2.2-.4.3-.4.3s.2,0,.5,0h4.3c.3,0,.5,0,.5,0s-.2-.2-.4-.3c0,0-1.4-1.3-1.9-6ZM34.5.3h-4.3c-.3,0-.5,0-.5,0,0,0,.2.2.4.3,0,0,1.4,1.3,1.9,6,.2,1.8.3,2.9.3,4.4,0,1.5,0,3.1,0,3.1,0,.3,0,.7,0,1v3.9h0v-3.9c0-.3,0-.7,0-1,0,0,0-1.7,0-3.1,0-1.5,0-2.6.3-4.4.5-4.7,1.9-6,1.9-6,.2-.2.4-.3.4-.3,0,0-.2,0-.5,0Z"/>
    <path class="st0" d="M53.9,38.2c-.3,1-1,1.7-1.8,2.4h9c-.9-.6-1.5-1.4-1.8-2.4-.6-1.5-.8-3.2-.8-5V7.7c0-1.8.3-3.5.8-5,.4-1,1-1.7,1.8-2.4h-9c.9.6,1.5,1.4,1.8,2.4.5,1.5.8,3.2.8,5v25.5c0,1.8-.3,3.5-.8,5Z"/>
    <path class="st0" d="M82.2,6.8c1-2.2,2.3-4.2,4-5.7.4-.4.9-.7,1.3-1-.9.3-1.7.6-2.5,1-2.2,1.2-4,2.8-5.5,4.7-1.5,1.9-2.6,4.2-3.3,6.7-.8,2.5-1.1,5.2-1.1,7.8s.4,5.3,1.1,7.8c.8,2.5,1.9,4.8,3.3,6.8,1.5,2,3.3,3.5,5.5,4.7.8.4,1.5.7,2.4,1-.4-.3-.9-.6-1.3-1-1.7-1.5-3-3.5-4-5.7-1-2.2-1.7-4.6-2.1-7.1-.4-2.5-.6-4.7-.6-6.5s.2-4.1.6-6.6c.4-2.5,1.1-4.8,2.1-7.1ZM109.2,12.6c-.8-2.5-1.9-4.8-3.4-6.7-1.5-1.9-3.3-3.5-5.5-4.7-.7-.4-1.5-.7-2.4-1,.5.3.9.6,1.3,1,1.7,1.5,3,3.4,4,5.7,1,2.2,1.7,4.6,2.1,7.1.4,2.4.6,4.7.6,6.6s-.2,4.1-.6,6.5c-.4,2.5-1.1,4.9-2.1,7.1-1,2.2-2.3,4.1-4,5.7-.4.4-.8.7-1.2.9.8-.3,1.6-.6,2.3-1,2.2-1.2,4-2.8,5.5-4.7,1.5-2,2.6-4.2,3.4-6.8.8-2.5,1.1-5.1,1.1-7.8s-.4-5.3-1.1-7.8Z"/>
    <path class="st0" d="M125.8,36.4c-.7-1.3-1.3-2.8-1.7-4.5v4.9c1.4,1.5,3.1,2.6,5.1,3.4-1.4-1-2.6-2.3-3.4-3.8ZM144.5,4.8c.5,1.1,1,2.3,1.3,3.6V2.4c-1.2-1-2.7-1.8-4.5-2.2-.3,0-.6-.2-.9-.2.3.2.6.4.9.6,1.3,1.1,2.4,2.5,3.2,4.1ZM148,25.3c-1-1.5-2.4-2.9-3.9-4-1.6-1.2-3.3-2.3-5.1-3.2-1.9-1-3.6-2-5.3-3.1-1.6-1.1-3-2.3-4.1-3.5-1.2-1.4-1.8-3-1.8-4.8,0-2.6.8-4.5,2.3-5.8.2-.2.4-.3.6-.4-.9.3-1.7.7-2.4,1.2-1,.7-1.9,1.6-2.5,2.7-.6,1.1-.9,2.5-.9,4s.5,3.6,1.4,4.9c1,1.4,2.2,2.6,3.8,3.6,1.5,1.1,3.2,2.1,5,3,1.8.9,3.5,2,5.1,3,1.6,1.1,3,2.4,4,3.8,1.1,1.5,1.6,3.3,1.6,5.4s-.3,3-.8,4.2c-.5,1.2-1.3,2.2-2.3,3.1-1,.8-2.1,1.5-3.4,1.9,0,0-.2,0-.3,0,.7-.1,1.4-.3,2.1-.5,1.6-.4,3-1.1,4.3-2.1,1.2-.9,2.3-2.1,3-3.4.7-1.3,1.1-2.9,1.1-4.8s-.5-3.9-1.5-5.4Z"/>
  </g>
  <g>
    <g>
      <path class="st0" d="M114.8,46.9c.9.6,1.7,1.9,2,2.4l28.4,38.3v-7l-25-33.6h-5.4ZM117.5,80.8c-.2-1.8-.3-2.9-.3-4.4,0-1.5,0-3.1,0-3.1,0-.3,0-.7,0-1v-3.9h0v3.9c0,.3,0,.7,0,1,0,0,0,1.7,0,3.1,0,1.5,0,2.6-.3,4.4-.5,4.7-1.9,6-1.9,6-.2.2-.4.3-.4.3,0,0,.2,0,.5,0h4.3c.3,0,.5,0,.5,0s-.2-.2-.4-.3c0,0-1.4-1.3-1.9-6ZM147.6,46.9h-4.3c-.3,0-.5,0-.5,0s.2.2.4.3c0,0,1.4,1.3,1.9,6,.2,1.8.3,2.9.3,4.4,0,1.5,0,3.1,0,3.1,0,.3,0,.7,0,1v3.9h0v-3.9c0-.3,0-.7,0-1,0,0,0-1.7,0-3.1,0-1.5,0-2.6.3-4.4.5-4.7,1.9-6,1.9-6,.2-.2.4-.3.4-.3,0,0-.2,0-.5,0Z"/>
      <path class="st0" d="M23.9,71.8c-1-1.5-2.4-2.9-3.9-4-1.6-1.2-3.3-2.3-5.1-3.2-1.9-1-3.6-2-5.3-3.1-1.6-1.1-3-2.3-4.1-3.5-1.2-1.4-1.8-3-1.8-4.8,0-2.6.8-4.5,2.3-5.8.2-.2.4-.3.6-.4-.9.3-1.7.7-2.4,1.2-1,.7-1.9,1.6-2.5,2.7-.6,1.1-.9,2.5-.9,4s.5,3.6,1.4,4.9c1,1.4,2.2,2.6,3.8,3.6,1.5,1.1,3.2,2.1,5,3,1.8.9,3.5,2,5.1,3,1.6,1.1,3,2.4,4,3.8,1.1,1.5,1.6,3.3,1.6,5.4s-.3,3-.8,4.2c-.5,1.2-1.3,2.2-2.3,3.1-1,.8-2.1,1.5-3.4,1.9,0,0-.2,0-.3,0,.7-.1,1.4-.3,2.1-.5,1.6-.4,3-1.1,4.3-2.1,1.2-.9,2.3-2.1,3-3.4h0c.7-1.3,1.1-2.9,1.1-4.8s-.5-3.9-1.5-5.4ZM1.7,83c-.7-1.3-1.3-2.8-1.7-4.5v4.9c1.4,1.5,3.1,2.6,5.1,3.4-1.4-1-2.6-2.3-3.4-3.8ZM20.5,51.3c.5,1.1,1,2.3,1.3,3.6v-5.9c-1.2-1-2.7-1.8-4.5-2.2-.3,0-.6-.2-.9-.2.3.2.6.4.9.6,1.3,1.1,2.4,2.5,3.2,4.1Z"/>
      <path class="st0" d="M66.4,49.1c.7-.8,1.5-1.5,2.3-2.3h-4.2c.2.1.3.3.4.4.4.4.6,1,.6,1.7,0,1.1-6.3,8.1-6.4,8.6.4-.4,7-8,7.3-8.4ZM48.3,49.2c.4-.9,1-1.7,1.8-2.4h-9c.9.6,1.5,1.4,1.8,2.4.5,1.5.8,3.2.8,5v25.5c0,1.8-.3,3.5-.8,5-.3,1-1,1.7-1.8,2.4h9c-.9-.6-1.5-1.4-1.8-2.4-.6-1.5-.8-3.2-.8-5v-25.5c0-1.8.3-3.5.8-5ZM62.9,87.1h8.5l-17.9-22.5-2.4,2.7,11.8,15.1c.2.3.4.7.6,1.2.2.5.3,1,.3,1.4,0,.7-.2,1.3-.6,1.8-.1.1-.2.3-.4.4Z"/>
      <path class="st0" d="M94.3,49.2c.4-1,1-1.7,1.8-2.4h-9c.9.6,1.5,1.4,1.8,2.4.5,1.5.8,3.2.8,5v25.5c0,1.8-.3,3.5-.8,5-.3,1-1,1.7-1.8,2.4h9c-.9-.6-1.5-1.4-1.8-2.4-.6-1.5-.8-3.2-.8-5v-25.5c0-1.8.3-3.5.8-5Z"/>
    </g>
    <g>
      <path class="st0" d="M125.9,131.3c-.3-.8-.5-1.6-.5-2.5,0-.9,0-1.6,0-2.4v-33.1h-6.3c.9.6,1.5,1.4,1.8,2.4.5,1.5.8,3.2.8,5v25.5c0,1.8-.3,3.5-.8,5-.3,1-1,1.7-1.8,2.4h8.7c-.1,0-.3-.2-.4-.3-.6-.5-1.1-1.2-1.4-2ZM140.9,95.8s0,0,0,0c.6.9,1.1,1.9,1.4,3,.3,1.1.4,2.2.4,3.3s-.2,2.2-.5,3.4c-.4,1.6-1.1,2.9-2,4.1-.5.6-1.1,1.1-1.7,1.5h0c2.1-.5,3.9-1.5,5.4-3,1.5-1.5,2.2-3.3,2.2-5.6s-.3-2.8-.9-3.9c-.6-1.1-1.4-2.1-2.4-2.8-1-.8-2.2-1.4-3.4-1.7-.1,0-.4-.1-.4-.1,0,0,0,0,0,0-1.7-.4-3.6-.6-5.4-.5h0c1.7,0,3.5.3,5.1.8.9.3,1.8.8,2.3,1.6ZM148.7,118.6c-.6-1.2-1.4-2.3-2.4-3.2-1-.9-2.2-1.7-3.5-2.2-1-.4-2-.7-3-.9,0,0,.2,0,.3.1,1.2.7,2.3,1.5,3.1,2.6.8,1.1,1.4,2.3,1.8,3.7.4,1.4.6,2.8.6,4.2s-.2,2.7-.6,4.1c-.4,1.4-1,2.6-1.8,3.6,0,0-.1.2-.2.2-1,1.3-2.5,2.1-4.1,2.3-1.1.1-2.1.1-3.1.1,0,0,0,.1,0,.1,1.4,0,3.8.1,5.6-.4,1.6-.4,3-1.2,4.2-2.1,1.2-.9,2.2-2,2.9-3.4.7-1.3,1.1-2.9,1.1-4.7s-.3-3-.9-4.2Z"/>
      <path class="st0" d="M21.2,133.7c0,0-2.3,0-2.3,0h0c0,0,10,0,10,0v-5.3c-1.2,3.1-4.2,5.2-7.7,5.2ZM9.6,132.6c-.9-1.2-1.4-2.7-1.5-4.2,0-.2,0-.4,0-.6v-28.3c0-.2,0-.4,0-.6.1-2.1,1.1-4,2.6-5.4H1.8c1.5,1.4,2.4,3.3,2.6,5.5,0,.2,0,.3,0,.5v26.9h0s0,1.3,0,1.3c0,.2,0,.4,0,.5-.1,2.2-1.1,4.1-2.6,5.5h9.4c-.5-.2-1.3-.8-1.6-1.2Z"/>
      <path class="st0" d="M81.3,133.7h9.2c-.5-.3-1-.6-1.4-1-.8-.7-1.4-1.5-1.9-2.5-.5-1-1-2.1-1.5-3.4l-12.2-33.6-1.7,4.7,8.1,23h0l.6,1.5c.3.8.6,1.7,1,2.7.3,1,.6,2,.9,3,.3,1,.4,1.9.4,2.6,0,1.4-.4,2.5-1.3,3.1ZM64.5,117.2c-1.3,3.1-4.3,10.9-4.8,11.7-1,1.6-2.1,3-3.4,4.2-.3.3-.6.5-.9.7,0,0,0,0,0,0h7c-1.1-.9-1.7-2.3-1.7-4.2,0-1.5,3.1-10.3,3.8-12.4h0Z"/>
    </g>
  </g>
</svg>